<svg width="699" height="1090" viewBox="0 0 699 1090" fill="none" xmlns="http://www.w3.org/2000/svg">
<ellipse cx="349.5" cy="545" rx="349.5" ry="545" fill="#2D2D2D"/>
<ellipse cx="350" cy="544" rx="349" ry="467" fill="#555555"/>
<path d="M249 722.304L240 646.107C336.791 708.612 430.255 667.468 464.947 639.043C464.965 639.027 464.983 639.013 465 639C464.982 639.014 464.965 639.029 464.947 639.043C463.28 640.578 460.05 659.179 460.05 722.304C389.85 750.731 290.1 734.149 249 722.304Z" fill="#F7D5B2"/>
<path d="M347.999 175.5C281.868 171.279 232.455 195.774 196.723 230.556C201.887 227.412 206.125 226.626 208.965 228.971C208.988 228.942 209 228.951 209 229C208.988 228.99 208.977 228.981 208.965 228.971C207.097 231.338 130.687 486.756 153.999 548C108.499 496.5 94.0071 332.802 106.501 312.5C290.501 13.501 101.952 194.905 347.999 136.001C749 40.0011 542.513 178.667 563.999 279.998C567.196 295.072 566.492 297.079 564.194 292.944C567.217 309.35 577.169 336.579 583.318 369.176L595 401L587.039 394.452C591.407 436.974 586.18 485.437 552.001 530C538.594 547.48 554.999 456.167 563.999 445L533.246 290.68C501.681 235.918 444.028 181.629 347.999 175.5Z" fill="#AA9069"/>
<path d="M577 414.061C554 576.758 478 700 344 700C210 700 154 566.118 111 414.061C158 225.651 215.318 176 344 176C472.682 176 534 225.651 577 414.061Z" fill="#FFDBB4"/>
<ellipse cx="577" cy="421.597" rx="24" ry="38.1252" fill="#FFDBB4"/>
<ellipse cx="111" cy="421.597" rx="24" ry="38.1252" fill="#FFDBB4"/>
<path d="M120 352C122.163 346.223 124.824 340.197 127.891 334.021L199 172H212L608 94C627 108 333 220 248 203C226.862 198.772 157.917 273.563 127.891 334.021L120 352Z" fill="#9B835F"/>
<path d="M165 248C220 171.877 558.033 118.323 639.528 112C643.348 129.57 181.235 253.092 164.32 249.4C163.521 249.225 163.716 248.767 165 248Z" fill="#A48C68"/>
<path d="M636 119.5L347 210L168 249L176 225L636 119.5Z" fill="#9B835F"/>
<path d="M355 207.498C538.5 190 662.63 122.206 649 123C597.5 126 610 127.999 355 207.498Z" fill="#A48C68"/>
<path d="M657.5 129C657.5 118.5 558.2 160.6 311 215L413.5 205H463.5L485 214.5L500.5 231.5L538.5 293L568 382H591L564.275 257.5L657.5 129Z" fill="#9B835F" stroke="#AA9069"/>
<path d="M395 486.978C395 504.927 379.129 508.977 354 508.977C328.871 508.977 315 504.927 315 486.978C315 469.028 328.871 486.978 354 486.978C379.129 486.978 395 469.028 395 486.978Z" fill="#CEB192"/>
<path d="M465 545H240.5C259 593 295 639.5 358 639.5C420.513 639.5 448.401 580.26 464.623 545.801L465 545Z" fill="#474747"/>
<path d="M466 544.5H239.5C239.5 549.591 247 562.121 249.5 567H456L466 544.5Z" fill="white"/>
<path d="M278.501 604.5C293.121 597.19 324.75 588.048 359.501 589.127C380.213 589.77 409.743 589.044 432 599.5C438.5 598 402.5 647 355.397 639.082C322.077 643.327 272.04 607.73 278.501 604.5Z" fill="#FA9090"/>
<path d="M305 624.469C305 624.872 304.878 625.242 304.878 625.662C304.878 625.815 304.951 626.074 304.736 625.981C304.672 625.953 304.639 625.873 304.584 625.83C304.525 625.785 304.4 625.761 304.328 625.722C304.046 625.568 303.754 625.381 303.453 625.234C303.296 625.157 303.06 625.036 302.926 624.926C302.876 624.886 302.78 624.889 302.72 624.858C302.65 624.822 302.574 624.732 302.494 624.71C302.21 624.631 302.779 624.988 302.494 624.926C302.353 624.896 301.388 623.976 301.254 623.903C304.328 626.5 300.942 623.712 300.806 623.594C300.67 623.474 300.975 623.967 300.806 623.903C300.521 623.794 286 614.473 299.481 622.855C299.093 622.614 298.628 622.395 298.291 622.091C297.985 621.814 297.646 621.564 297.345 621.286C297.213 621.164 297.043 621 296.877 620.928C296.747 620.871 296.674 620.711 296.54 620.658C296.431 620.616 296.284 620.517 296.205 620.431C296.013 620.219 295.7 620.116 295.49 619.933C295.324 619.788 295.059 619.612 294.862 619.504C294.533 619.326 292.009 618.126 291.706 617.895C291.458 617.707 293.355 618.449 293.093 618.302C292.998 618.249 292.872 618.17 292.794 618.094C292.687 617.99 292.502 617.986 292.387 617.895C292.162 617.72 290.724 617.203 290.5 617.028C290.399 616.949 291.477 617.254 291.36 617.197C296.877 622.091 291.207 617.127 291.136 617.089C290.939 616.982 290.954 616.986 291.197 617.029" stroke="#FA9090" stroke-linecap="round" stroke-linejoin="round"/>
<path d="M294 619.5L301.5 624.5L318.5 632.5L331.5 636.5L344.5 639L366 639.5" stroke="#FA9090"/>
<path d="M353 494V377" stroke="#CEB192" stroke-width="11"/>
<g filter="url(#filter0_d)">
<circle cx="259" cy="404" r="56" fill="#353535"/>
</g>
<g filter="url(#filter1_d)">
<circle cx="442" cy="404" r="56" fill="#353535"/>
</g>
<path d="M318.5 404L314.5 415.5L309 389L318.5 394H385L391.5 386.5L387.5 415.5L382 404H318.5Z" fill="#353535"/>
<path d="M192 363C210.174 338.972 259.817 302.21 313 347.389" stroke="#9B835F" stroke-width="5"/>
<path d="M498 363C480.126 339.621 431.304 303.853 379 347.811" stroke="#9B835F" stroke-width="5"/>
<path d="M498 399L577.5 383M117 383L208 399" stroke="#353535" stroke-width="5"/>
<ellipse cx="358.5" cy="746.5" rx="112.5" ry="46.5" fill="#F6D5B2"/>
<path d="M73.9989 819.633C66.5 737.5 174.999 694.5 256.139 717.515C386.631 799.11 390.607 761.566 466.67 719.517C542.732 677.468 634.998 771 634.998 819.633C606.377 877.534 551.173 950.086 462.304 989.331C373.435 1028.58 287.832 1012.85 256.139 996.501C146.994 953.951 80.8419 894.582 73.9989 819.633Z" fill="black" stroke="black"/>
<defs>
<filter id="filter0_d" x="196" y="346" width="126" height="126" filterUnits="userSpaceOnUse" color-interpolation-filters="sRGB">
<feFlood flood-opacity="0" result="BackgroundImageFix"/>
<feColorMatrix in="SourceAlpha" type="matrix" values="0 0 0 0 0 0 0 0 0 0 0 0 0 0 0 0 0 0 127 0"/>
<feOffset dy="5"/>
<feGaussianBlur stdDeviation="3.5"/>
<feColorMatrix type="matrix" values="0 0 0 0 0 0 0 0 0 0 0 0 0 0 0 0 0 0 0.25 0"/>
<feBlend mode="normal" in2="BackgroundImageFix" result="effect1_dropShadow"/>
<feBlend mode="normal" in="SourceGraphic" in2="effect1_dropShadow" result="shape"/>
</filter>
<filter id="filter1_d" x="379" y="346" width="126" height="126" filterUnits="userSpaceOnUse" color-interpolation-filters="sRGB">
<feFlood flood-opacity="0" result="BackgroundImageFix"/>
<feColorMatrix in="SourceAlpha" type="matrix" values="0 0 0 0 0 0 0 0 0 0 0 0 0 0 0 0 0 0 127 0"/>
<feOffset dy="5"/>
<feGaussianBlur stdDeviation="3.5"/>
<feColorMatrix type="matrix" values="0 0 0 0 0 0 0 0 0 0 0 0 0 0 0 0 0 0 0.25 0"/>
<feBlend mode="normal" in2="BackgroundImageFix" result="effect1_dropShadow"/>
<feBlend mode="normal" in="SourceGraphic" in2="effect1_dropShadow" result="shape"/>
</filter>
</defs>
</svg>
